<svg width="24" height="18" viewBox="0 0 24 18" fill="none" xmlns="http://www.w3.org/2000/svg">
<path d="M0 7.71405H24V10.2854H0V7.71405Z" fill="white"/>
<path d="M18.3391 18.0001C19.2268 18.0001 20.0243 17.9508 20.7315 17.8522C21.4388 17.7536 22.0412 17.5692 22.5389 17.2988C23.0366 17.0269 23.4208 16.658 23.6973 16.1905C23.8283 15.9694 23.9272 15.7134 24 15.4288L-1.12397e-07 15.4288L0 18.0001L18.3391 18.0001Z" fill="white"/>
<path d="M5.66093 9.21687e-07C4.77322 9.66301e-07 3.97575 0.0492959 3.26849 0.147888C2.56124 0.24648 1.95877 0.430943 1.46107 0.701276C0.963377 0.9732 0.579191 1.34213 0.302694 1.80965C0.171721 2.03068 0.0727635 2.2867 2.0051e-06 2.57135L24 2.57135L24 0L5.66093 9.21687e-07Z" fill="white"/>
</svg>
